<mxfile host="65bd71144e">
    <diagram id="uH-Ey2n1wFhpkCpBx1c_" name="Page-1">
        <mxGraphModel dx="1208" dy="716" grid="1" gridSize="10" guides="1" tooltips="1" connect="1" arrows="1" fold="1" page="1" pageScale="1" pageWidth="1169" pageHeight="827" background="none" math="0" shadow="0">
            <root>
                <mxCell id="0"/>
                <mxCell id="1" parent="0"/>
                <mxCell id="1424" value="" style="group" vertex="1" connectable="0" parent="1">
                    <mxGeometry x="830" y="380" width="64" height="64" as="geometry"/>
                </mxCell>
                <mxCell id="1420" value="" style="whiteSpace=wrap;html=1;aspect=fixed;fillColor=#6FA0D9;" vertex="1" parent="1424">
                    <mxGeometry width="49" height="49" as="geometry"/>
                </mxCell>
                <mxCell id="1421" value="" style="whiteSpace=wrap;html=1;aspect=fixed;fillColor=#8FB3B3;" vertex="1" parent="1424">
                    <mxGeometry x="5" y="5" width="49" height="49" as="geometry"/>
                </mxCell>
                <mxCell id="1422" value="" style="whiteSpace=wrap;html=1;aspect=fixed;fillColor=#6FA0D9;" vertex="1" parent="1424">
                    <mxGeometry x="10" y="10" width="49" height="49" as="geometry"/>
                </mxCell>
                <mxCell id="1423" value="" style="whiteSpace=wrap;html=1;aspect=fixed;fillColor=#8FB3B3;" vertex="1" parent="1424">
                    <mxGeometry x="15" y="15" width="49" height="49" as="geometry"/>
                </mxCell>
                <mxCell id="1425" value="" style="endArrow=none;html=1;" edge="1" parent="1424">
                    <mxGeometry width="50" height="50" relative="1" as="geometry">
                        <mxPoint x="70" y="50" as="sourcePoint"/>
                        <mxPoint x="90" y="50" as="targetPoint"/>
                    </mxGeometry>
                </mxCell>
                <mxCell id="1414" value="" style="group;aspect=fixed;" vertex="1" connectable="0" parent="1">
                    <mxGeometry x="702.6" y="370.20000000000005" width="85" height="85" as="geometry"/>
                </mxCell>
                <mxCell id="1408" value="" style="whiteSpace=wrap;html=1;aspect=fixed;fillColor=#6FA0D9;" vertex="1" parent="1414">
                    <mxGeometry x="9.13978494623656" y="9.13978494623656" width="53.01075268817203" height="53.01075268817203" as="geometry"/>
                </mxCell>
                <mxCell id="1409" value="" style="whiteSpace=wrap;html=1;aspect=fixed;fillColor=#8FB3B3;" vertex="1" parent="1414">
                    <mxGeometry x="13.70967741935484" y="13.70967741935484" width="53.01075268817203" height="53.01075268817203" as="geometry"/>
                </mxCell>
                <mxCell id="1410" value="" style="whiteSpace=wrap;html=1;aspect=fixed;fillColor=#6FA0D9;" vertex="1" parent="1414">
                    <mxGeometry x="18.27956989247312" y="18.27956989247312" width="53.01075268817203" height="53.01075268817203" as="geometry"/>
                </mxCell>
                <mxCell id="1411" value="" style="whiteSpace=wrap;html=1;aspect=fixed;fillColor=#8FB3B3;" vertex="1" parent="1414">
                    <mxGeometry x="22.849462365591393" y="22.849462365591393" width="53.01075268817203" height="53.01075268817203" as="geometry"/>
                </mxCell>
                <mxCell id="1412" value="" style="whiteSpace=wrap;html=1;aspect=fixed;fillColor=#6FA0D9;" vertex="1" parent="1414">
                    <mxGeometry x="27.41935483870968" y="27.41935483870968" width="53.01075268817203" height="53.01075268817203" as="geometry"/>
                </mxCell>
                <mxCell id="1413" value="" style="whiteSpace=wrap;html=1;aspect=fixed;fillColor=#8FB3B3;" vertex="1" parent="1414">
                    <mxGeometry x="31.989247311827963" y="31.989247311827963" width="53.01075268817203" height="53.01075268817203" as="geometry"/>
                </mxCell>
                <mxCell id="1383" value="" style="group;aspect=fixed;" vertex="1" connectable="0" parent="1">
                    <mxGeometry x="595.5" y="374.65" width="87" height="87" as="geometry"/>
                </mxCell>
                <mxCell id="1375" value="" style="whiteSpace=wrap;html=1;aspect=fixed;fillColor=#6FA0D9;" vertex="1" parent="1383">
                    <mxGeometry width="54.94736842105264" height="54.94736842105264" as="geometry"/>
                </mxCell>
                <mxCell id="1376" value="" style="whiteSpace=wrap;html=1;aspect=fixed;fillColor=#8FB3B3;" vertex="1" parent="1383">
                    <mxGeometry x="4.578947368421054" y="4.578947368421054" width="54.94736842105264" height="54.94736842105264" as="geometry"/>
                </mxCell>
                <mxCell id="1377" value="" style="whiteSpace=wrap;html=1;aspect=fixed;fillColor=#6FA0D9;" vertex="1" parent="1383">
                    <mxGeometry x="9.157894736842108" y="9.157894736842108" width="54.94736842105264" height="54.94736842105264" as="geometry"/>
                </mxCell>
                <mxCell id="1378" value="" style="whiteSpace=wrap;html=1;aspect=fixed;fillColor=#8FB3B3;" vertex="1" parent="1383">
                    <mxGeometry x="13.73684210526316" y="13.73684210526316" width="54.94736842105264" height="54.94736842105264" as="geometry"/>
                </mxCell>
                <mxCell id="1379" value="" style="whiteSpace=wrap;html=1;aspect=fixed;fillColor=#6FA0D9;" vertex="1" parent="1383">
                    <mxGeometry x="18.315789473684216" y="18.315789473684216" width="54.94736842105264" height="54.94736842105264" as="geometry"/>
                </mxCell>
                <mxCell id="1380" value="" style="whiteSpace=wrap;html=1;aspect=fixed;fillColor=#8FB3B3;" vertex="1" parent="1383">
                    <mxGeometry x="22.89473684210526" y="22.89473684210526" width="54.94736842105264" height="54.94736842105264" as="geometry"/>
                </mxCell>
                <mxCell id="1381" value="" style="whiteSpace=wrap;html=1;aspect=fixed;fillColor=#6FA0D9;" vertex="1" parent="1383">
                    <mxGeometry x="27.47368421052632" y="27.47368421052632" width="54.94736842105264" height="54.94736842105264" as="geometry"/>
                </mxCell>
                <mxCell id="1382" value="" style="whiteSpace=wrap;html=1;aspect=fixed;fillColor=#8FB3B3;" vertex="1" parent="1383">
                    <mxGeometry x="32.05263157894738" y="32.05263157894738" width="54.94736842105264" height="54.94736842105264" as="geometry"/>
                </mxCell>
                <mxCell id="1361" value="" style="group" vertex="1" connectable="0" parent="1">
                    <mxGeometry x="334" y="345" width="125" height="125" as="geometry"/>
                </mxCell>
                <mxCell id="1347" value="" style="whiteSpace=wrap;html=1;aspect=fixed;fillColor=#6FA0D9;" vertex="1" parent="1361">
                    <mxGeometry width="60" height="60" as="geometry"/>
                </mxCell>
                <mxCell id="1348" value="" style="whiteSpace=wrap;html=1;aspect=fixed;fillColor=#8FB3B3;" vertex="1" parent="1361">
                    <mxGeometry x="5" y="5" width="60" height="60" as="geometry"/>
                </mxCell>
                <mxCell id="1349" value="" style="whiteSpace=wrap;html=1;aspect=fixed;fillColor=#6FA0D9;" vertex="1" parent="1361">
                    <mxGeometry x="10" y="10" width="60" height="60" as="geometry"/>
                </mxCell>
                <mxCell id="1350" value="" style="whiteSpace=wrap;html=1;aspect=fixed;fillColor=#8FB3B3;" vertex="1" parent="1361">
                    <mxGeometry x="15" y="15" width="60" height="60" as="geometry"/>
                </mxCell>
                <mxCell id="1351" value="" style="whiteSpace=wrap;html=1;aspect=fixed;fillColor=#6FA0D9;" vertex="1" parent="1361">
                    <mxGeometry x="20" y="20" width="60" height="60" as="geometry"/>
                </mxCell>
                <mxCell id="1352" value="" style="whiteSpace=wrap;html=1;aspect=fixed;fillColor=#8FB3B3;" vertex="1" parent="1361">
                    <mxGeometry x="25" y="25" width="60" height="60" as="geometry"/>
                </mxCell>
                <mxCell id="1353" value="" style="whiteSpace=wrap;html=1;aspect=fixed;fillColor=#6FA0D9;" vertex="1" parent="1361">
                    <mxGeometry x="30" y="30" width="60" height="60" as="geometry"/>
                </mxCell>
                <mxCell id="1354" value="" style="whiteSpace=wrap;html=1;aspect=fixed;fillColor=#8FB3B3;" vertex="1" parent="1361">
                    <mxGeometry x="35" y="35" width="60" height="60" as="geometry"/>
                </mxCell>
                <mxCell id="1355" value="" style="whiteSpace=wrap;html=1;aspect=fixed;fillColor=#6FA0D9;" vertex="1" parent="1361">
                    <mxGeometry x="40" y="40" width="60" height="60" as="geometry"/>
                </mxCell>
                <mxCell id="1356" value="" style="whiteSpace=wrap;html=1;aspect=fixed;fillColor=#8FB3B3;" vertex="1" parent="1361">
                    <mxGeometry x="45" y="45" width="60" height="60" as="geometry"/>
                </mxCell>
                <mxCell id="1357" value="" style="whiteSpace=wrap;html=1;aspect=fixed;fillColor=#6FA0D9;" vertex="1" parent="1361">
                    <mxGeometry x="50" y="50" width="60" height="60" as="geometry"/>
                </mxCell>
                <mxCell id="1358" value="" style="whiteSpace=wrap;html=1;aspect=fixed;fillColor=#8FB3B3;" vertex="1" parent="1361">
                    <mxGeometry x="55" y="55" width="60" height="60" as="geometry"/>
                </mxCell>
                <mxCell id="1359" value="" style="whiteSpace=wrap;html=1;aspect=fixed;fillColor=#6FA0D9;" vertex="1" parent="1361">
                    <mxGeometry x="60" y="60" width="60" height="60" as="geometry"/>
                </mxCell>
                <mxCell id="1360" value="" style="whiteSpace=wrap;html=1;aspect=fixed;fillColor=#8FB3B3;" vertex="1" parent="1361">
                    <mxGeometry x="65" y="65" width="60" height="60" as="geometry"/>
                </mxCell>
                <mxCell id="1323" value="" style="group" vertex="1" connectable="0" parent="1">
                    <mxGeometry x="187.5" y="351" width="125" height="125" as="geometry"/>
                </mxCell>
                <mxCell id="1295" value="" style="whiteSpace=wrap;html=1;aspect=fixed;fillColor=#6FA0D9;" vertex="1" parent="1323">
                    <mxGeometry width="60" height="60" as="geometry"/>
                </mxCell>
                <mxCell id="1296" value="" style="whiteSpace=wrap;html=1;aspect=fixed;fillColor=#8FB3B3;" vertex="1" parent="1323">
                    <mxGeometry x="5" y="5" width="60" height="60" as="geometry"/>
                </mxCell>
                <mxCell id="1311" value="" style="whiteSpace=wrap;html=1;aspect=fixed;fillColor=#6FA0D9;" vertex="1" parent="1323">
                    <mxGeometry x="10" y="10" width="60" height="60" as="geometry"/>
                </mxCell>
                <mxCell id="1312" value="" style="whiteSpace=wrap;html=1;aspect=fixed;fillColor=#8FB3B3;" vertex="1" parent="1323">
                    <mxGeometry x="15" y="15" width="60" height="60" as="geometry"/>
                </mxCell>
                <mxCell id="1313" value="" style="whiteSpace=wrap;html=1;aspect=fixed;fillColor=#6FA0D9;" vertex="1" parent="1323">
                    <mxGeometry x="20" y="20" width="60" height="60" as="geometry"/>
                </mxCell>
                <mxCell id="1314" value="" style="whiteSpace=wrap;html=1;aspect=fixed;fillColor=#8FB3B3;" vertex="1" parent="1323">
                    <mxGeometry x="25" y="25" width="60" height="60" as="geometry"/>
                </mxCell>
                <mxCell id="1315" value="" style="whiteSpace=wrap;html=1;aspect=fixed;fillColor=#6FA0D9;" vertex="1" parent="1323">
                    <mxGeometry x="30" y="30" width="60" height="60" as="geometry"/>
                </mxCell>
                <mxCell id="1316" value="" style="whiteSpace=wrap;html=1;aspect=fixed;fillColor=#8FB3B3;" vertex="1" parent="1323">
                    <mxGeometry x="35" y="35" width="60" height="60" as="geometry"/>
                </mxCell>
                <mxCell id="1317" value="" style="whiteSpace=wrap;html=1;aspect=fixed;fillColor=#6FA0D9;" vertex="1" parent="1323">
                    <mxGeometry x="40" y="40" width="60" height="60" as="geometry"/>
                </mxCell>
                <mxCell id="1318" value="" style="whiteSpace=wrap;html=1;aspect=fixed;fillColor=#8FB3B3;" vertex="1" parent="1323">
                    <mxGeometry x="45" y="45" width="60" height="60" as="geometry"/>
                </mxCell>
                <mxCell id="1319" value="" style="whiteSpace=wrap;html=1;aspect=fixed;fillColor=#6FA0D9;" vertex="1" parent="1323">
                    <mxGeometry x="50" y="50" width="60" height="60" as="geometry"/>
                </mxCell>
                <mxCell id="1320" value="" style="whiteSpace=wrap;html=1;aspect=fixed;fillColor=#8FB3B3;" vertex="1" parent="1323">
                    <mxGeometry x="55" y="55" width="60" height="60" as="geometry"/>
                </mxCell>
                <mxCell id="1321" value="" style="whiteSpace=wrap;html=1;aspect=fixed;fillColor=#6FA0D9;" vertex="1" parent="1323">
                    <mxGeometry x="60" y="60" width="60" height="60" as="geometry"/>
                </mxCell>
                <mxCell id="1322" value="" style="whiteSpace=wrap;html=1;aspect=fixed;fillColor=#8FB3B3;" vertex="1" parent="1323">
                    <mxGeometry x="65" y="65" width="60" height="60" as="geometry"/>
                </mxCell>
                <mxCell id="200" value="" style="image=data:image/png,iVBORw0KGgoAAAANSUhEUgAAAwoAAAF7CAYAAABy2XxsAAAAOXRFWHRTb2Z0d2FyZQBNYXRwbG90bGliIHZlcnNpb24zLjUuMywgaHR0cHM6Ly9tYXRwbG90bGliLm9yZy/NK7nSAAAACXBIWXMAAA9hAAAPYQGoP6dpAAAq3klEQVR4nO3dy5LkSHYYUAcQEZlZVf2a6eHDJK2kH9KHyPQl+ih9hcxIM8nIxZAcsnumuytfEQFAi6KM6ffeDqDKhhvZOasGEv6A+3V33K5FDD/9j/++thvWee6vl/z4eHe6VUVbL5d0bzge+xvLstlOW/tnhmnaLhPbHYfNMkvsb3hmPB2qivvr0NfKcu3Hdjz075PqLOrd885raKeFMRjG3E4ss4Q4qIzHYlze/j2+36fG+8vqmWgjVrb60VqO61IYl2EIsbPmsY8xmfpatRvHf89aiO3GuC7aifXEMl8Sb+l9q3o33q+13N+0tne8T5r3Iq6rtjfLfImNOUxj1PKemPbeuI5bXi9xr61iJ7ZdzeGmas8IbS/nayiT3znuCbv6shFPyyW024o9PRiK2N/ai/bMx57zJtUx3a6j7MuOc3qznmoMtsrsODv2nFnVWG4KfRs31s+ntm+v/+os3NpXdsVBODvKGH099/VufO9U/U3vV431Rr17zumt/XqX4htpq57y7xt7dhzX1nasy6Jv4yl858ax39hjqjKb51FRJsZSa0Ws72hn67x5W+bPdCoCAAD/P5EoAAAAiUQBAABIJAoAAEAiUQAAABKJAgAAkEgUAACARKIAAAAkEgUAACBJP2G75xceo/RLcV/wS3J7fhkv/ZLxZs+KMuHX6Kpf8d36Rc7qfYatX6cufh1wvF3kV349OP6S6e06Wmtt3foF3upXpOMvS+74pen4i45x7OtY2vhFzh3tbv1q5KfOjbevq19IjPfiL1jGX2os2o6/wFn+Qmz8heEQS2U8bv3yb/UrnvHWjl8hXi+3f8Vzz6/G7vl16hQbw/a+s1nHXIx1iJXp4e7m3/+14v4yxvWeX+iOcb7nV6PjdbEW1vADr+kX76tfvF23f8n4S6RffI6/Gr3jV0jnYp/8c8i/mB7mbEccp1jf8Svyf45fYq7mJ45l3Hurc23r1+jLtbzxK8TL60suE945/RJwtcZis6e+/3t++Tf9WnA5pxu/qlwu//ir6v3f9+zPy544iPUsO36RO7QzPdz3dRbfKss5/AJ0nK/q15yXHb86HGz9+vGusyOIfW8tf2fEX6uu2lnjUgiTWsVb2ufDWT4/v+a+zfH7M6/LKP0ydpyPIt7SnC1hTIoyaVxCvL2NWf+iAAAAJBIFAAAgkSgAAACJRAEAAEgkCgAAQCJRAAAAEokCAACQSBQAAIBEogAAACQSBQAAIJEoAAAAiUQBAABIJAoAAEAiUQAAABKJAgAAkEgUAACARKIAAAAkEgUAACA5LJfrzQfWZemuhzHnFsv53MJD/d8vl1zxsvbX43CzH7/W9ltrrLO1Nt2dbpaZX17TvfF46NudpvDAdn6VyhyP6Zk1jMu69v2v3qetYT5CO6nd1lJ/h6Ef69hua62169yXCXEwHnI7se04StX7lP19Ywn9+HSzr2dIfSn61pZ0r6uyWAe5b31fUtzvUI1bHJf8PlVFYU7j+1Xr9LXvb1zbVd+SEH9rMT1x/ccy6e+ttfGubzuujarMsKO7SejL/PS8o0ixPrp+FHO6VelSDNyOPXBLXNtD2Mtaa22d+7bXpY/9tVpzwbixr7bW2ngM+8yc641jm2KwmPcYx1G1ftIcxZis6tnYm+J+8KnazZnPNtZUdX4Oxbhs9SPeS+u/qjPEaRzbqYjZap4/1xDPy2V7vmKsfEk/4pi0luMg7k17zqi4tsfie2AIzwzjF2xw8XutWKfT4aG7jut9z1kY+7pnrON3VSXvTZ+/nuJ62VorlT1ncIyVtdhTxvhNFOd9xz4Un1le81jH+UhroYjRdWN/e1unf1EAAAASiQIAAJBIFAAAgESiAAAAJBIFAAAgkSgAAACJRAEAAEgkCgAAQCJRAAAAEokCAACQSBQAAIBEogAAACQSBQAAIJEoAAAAiUQBAABIJAoAAEAiUQAAABKJAgAAkEgUAACA5LAuy80H1nnurpfLNVfycNddD+MQrnM+MhyGdK9r5zqne7HeNsR6c5nY31jHWrQzhzGZ7k59HalEa2sclzBuVTvruvb1DqHm+L6ttTYe++uN+WuttWGabv+9uhf7Eq3b7cb5GcYdZYLxkPse3yfFZNG35RLGOsZoMUYp3kIcL6/nVKYtoZ3Q/zHEUmv1+L9VxU6qI7RTzd94PNyuo4qT8M7r5dJfh/etK/73+f8R8Z1j35Zz3qvimqr2pijtkeGd67Xdl9lag60Vsf4F4xb367qhvt7p3UP/9x17Stl22M9iPeMpx37sy679LMxhXP9VnMc4TX2pzqiNs6Ia67Rn7JH2yb6O8Rj2/LYdT0tYC3Wz4Z2LfXNP3BYV95c79qYk9m3H/pzmZ8dcxGf27GdxTKpVGutJcVGdUaH/e/aD9H12fr3Zj9a256OK4c1viCJGN8+KHd8QW2fWp4dun1HVt+TWOV3t6eMp9qVvt/pWiXMW3yftmS33P62n6pjeM04bYiy9vfYvCgAAQCJRAAAAEokCAACQSBQAAIBEogAAACQSBQAAIJEoAAAAiUQBAABIJAoAAEAiUQAAABKJAgAAkEgUAACARKIAAAAkEgUAACCRKAAAAIlEAQAASCQKAABAIlEAAAASiQIAAJAc2rL2d8ahuxyGPpcYplzJGusY+uvxeNgss1wuocyx6u/NMuldWmvDoe/wMPXX46moOLzzeNc/lN63tbbOc7gu6t0yhrEed+RxQz9f65r71ubbnRlCHWU967Ldl2B5PYc6cx1pPsJ8VWO9J76idbn2fbv2YzLd5cCO875c+jpiXz+10/dtCOtpvX5+YMTYqh/qx3be0U5aY+N27KT52BMXcQ8Zi3iLazlIa7211sK9PeM0LKEvxxB/1V4V6o1xEGO4tRz7u9byn0Gcn2pM4jsO8Z3H7bgux3pZbj9TjEGKhPjMsh1f1fhvSX0r9s31Et4nru0d7Zb712eWKddL6H+c0+kuH2wxbuNetBbttLiPxDjYs6eHZ9ahiIPYdpiP6oxa5o2xrdZcjKe0N23HW5qf4ltljOfyjrWQ7hTjlB4JYx3nNO5DrbU2zLe/icp4C/MR26nKpH0yPlO9XzzHYv/3fOPFb9gqDsKtPedy/GZI33xVHaHtw7uH/s/Vt0vcV77k7EjfksWcbuxNb9/XvygAAACJRAEAAEgkCgAAQCJRAAAAEokCAACQSBQAAIBEogAAACQSBQAAIJEoAAAAiUQBAABIJAoAAEAiUQAAABKJAgAAkEgUAACARKIAAAAkEgUAACCRKAAAAIlEAQAASA7pzrJ2l+Opf2QNf68sl0tfx2FKz8R64jNDUSYa12Wzb+Mxv2LXzlT0bZ676+Vy7csMQ64n3It1xOvWWptfzzf7Mt2ddvV3q2+x/y2MW6vqHG/nkMPxePPvreXYqSzX+eZ1FTu5ob6v1ZzHcUtjUlhDX9oSxm3IYzTs6O52w307w5jnNMZ6vB6K+VtD/+eXl75M8T5xDvM4bu8HrfXjOIzF/GzE01j0bYnrJz5TjVtc26GOeP0rnenbLdbPVuxXe1WewyU9E8XYSPvqxv7X2r53TvtXMR+bdYRzoWp7a39rLZ8v8cxa4/7Wir103N6/4jvv6VuM4yGsuWrfSXMYY/Scy1Tv+NZYnB0xFtaN2Pl073Y71Rm15xthq8x62Y6LrW+E6ixcw744tPANkY/pL4qDtF5Cu+lsaTvWf7HmUt/id1SxB8YzdmuOPxUKfYtjvxbfREXbXZXVvhP31jBu8yWXGcJaGOMa3HF+bp1zrRXfa2E+huP2nhj7Up574Z13nUlx3sOcrtW/CcR5j99Rb+r0LwoAAEAiUQAAABKJAgAAkEgUAACARKIAAAAkEgUAACCRKAAAAIlEAQAASCQKAABAIlEAAAASiQIAAJBIFAAAgESiAAAAJBIFAAAgkSgAAACJRAEAAEgkCgAAQCJRAAAAEokCAACQHNKdcegu12XdrGQ89tXsKTOMy+0yl0sqs1zn2/04TOneOvdl9vRtCW0P52vfzt0plRk2xq1qd5j6/qa+zvl9Uz1rP45t2JH7xWfG7TLjKb9ztFz6cYrvV45bKDM/v3TX1+fXXCaM9RTqvb6eN8vEvsXr1lpb136sh+Oxu45x31pra2h7OYe+7Jif1LfQbmtFbCwhDoo5HYYh3dsU6knjWPQt9SX2oyqz3t4Pqr5vrblS2CPSnlLUsYa+DUs/JksRb+Pp9p64FmNU7V83+9pam+Iai3vxWrxPqCftd1XshLFO+86nh/q+hD2j6suwEStVHH/J/92K45JiML5fa63d33WXa9irSuF94jtXe8YQ5j3F8ZDjK45/tX+ldjb2vC85b/asubSWq65W8fS2TLE20jtvjH1r9Vrtu7G9LuNaqOpM++TNVn+l3rQ3FfFXxe3bOqe8144hBGM71T4Un9lztqc6Nsb+00MhVg79+x2//lCU2dhDCuMpvGM854r1FO/F750qhtO+H9bY/Pi4WSb9vTgHxhbGP8bFjrWd1tib/dy/KAAAAIlEAQAASCQKAABAIlEAAAASiQIAAJBIFAAAgESiAAAAJBIFAAAgkSgAAACJRAEAAEgkCgAAQCJRAAAAEokCAACQSBQAAIBEogAAACQSBQAAIJEoAAAAiUQBAABIJAoAAEByaOPQ3RiPx+56OEzd9fJ6TpXM4d4w9vnHuizbPVnWvkz1TOjrHmuodwh1xL+31tow3M6f1nku7k7hoe13nh7u+3anUEcxbsvlGpoJ43bN8zOeDn07cY6HHeMa5rTqWxT7VsXOljhfreX5ifG3py/T3am7HuP7tWJcwjuvRbsxNtKcFuJ8bNXZWmvrtYrBN+ZLLhOv49oo+jqGcRoOx5t//9R237e4/sv1s8T4yv3PnevLjNNw8++Vacd+kOI2rO2qTAsxOh6319iXrJc8h6Ebxdoejod0L1Say4TYqGJ2vfRztq6hb9U+s2N9JHFPiHFQvF+ao/SOuR9ba3cNe3HVl/Xlpb8uzpZhjXv4xtpuLcXXnn2mPrc2/r5xFla2zthqfjbPl2p/Du0sl7jvFGd7HKe0lnPX0hm7FPMeLGEOp7h+DtV89fcOp35vjetpl+KcXsNeO92FvhWxNEwhNnbsrXE/iIMbv0s+NbS9lpOtdVrE9fzyerNM1W7+9grvU8xp/vbdXrdbZ8WOr+k0P+XeO26c/2/67l8UAACARKIAAAAkEgUAACCRKAAAAIlEAQAASCQKAABAIlEAAAASiQIAAJBIFAAAgESiAAAAJBIFAAAgkSgAAACJRAEAAEgkCgAAQCJRAAAAEokCAACQSBQAAIBEogAAACQSBQAAIDkMY58rLJdL/0S83mG9zpvPDIepL9OW/oFl3a4j9v183e5caHcYh81ncru5zDrffufxeMj1DH09w9S3O757yGXCfCwvr/11O+e+hbFcHp9v9rW11sa7U9/uxpi09itj+cb8mvuW6+jndKzaHW7ntymGW2vD0I/BuvTxtlZxHuYj9r/q23j6/HGL89NC32JctJZjZzn3fVuqNRjjIMRsGaNhTtd4fc3jtuyY58+VxqgV8RbHKYxja8U6jWXGHFtpXMIz1dqP8TS/hmeK91nXMO8bcd5ajvUYb1XsRHGtV++TxmBH3zbnp7W2Xvo9e2sf/dSZsEfs6Nvy8ti3s+N8ieJYbu13ZR3V2RH39HiOFWXG47GvI45bEccpFsIzVawsl9tn6p74GsIjQ+j7p76EdwzzU66xuMfFd152fIfEOd0RF3G9lPvMF8RXqmPt66j251QmjMlaxUG8VfQ/Kerp6qzWdpizz18trc3h+6b8tgyxc/jwvv9zEW/DFNdcf2bt2Yfi+V/F9bSx5so53dhb12X7+y1+H5TCvMez5G0M+xcFAAAgkSgAAACJRAEAAEgkCgAAQCJRAAAAEokCAACQSBQAAIBEogAAACQSBQAAIJEoAAAAiUQBAABIJAoAAEAiUQAAABKJAgAAkEgUAACARKIAAAAkEgUAACCRKAAAAMlhGIfuxrrcLjCM27nF2jYqKYyHKfRjzfVe5/BMf71cLqnMEOu99H2b7k65L8dDX8fx2Ncx9+221tqw9PXGMpU09qH/c9XONKV7t+r815u36ygmPY1BHMdr7tsS5mx699DXGa5ba63NcQ6v+Znc0M0/VzEaY6WFvi7F+4xh3I5ff+gfqOYivE8cpziOrdXx1JWp7oW4jXE8FesnGu/v+jqLmJ0fH7vr5em5u76G69Zauz6/9vUO/RvEtd5aa2Noezz18Te/nlOZuEfE2I91VuL7VOJ6ifWWcxrHP/a1GoPxkO51VZzz2qjGsutHEVtbMRnnq1TsM0MLe0Roe2i347xS7TNxv5rDvlmdHVX8vDUWa3mN+2JxvuSu3Y7J6rxJ+3M6C4v9LvZtDOvnWMRSaCfO4RD/3lprYxi32JfqeyA8s7W/tdbaGucn1luMwbr2Yx3fuTolltjOGsagiIM4h2l9VOfAeHv/reYnnn0x9stTL471RvxVz2TFnhHX8p7vm2kjjnfETlK8Tz47+jUWz8pPN991l1M8t4vvkBTHYQ3u+SYaj7f36z31VmdHqmLHmkvSd+K//bd/UQAAABKJAgAAkEgUAACARKIAAAAkEgUAACCRKAAAAIlEAQAASCQKAABAIlEAAAASiQIAAJBIFAAAgESiAAAAJBIFAAAgkSgAAACJRAEAAEgkCgAAQCJRAAAAEokCAACQSBQAAIDk8O9R6TD2+ce6LJtllvO1vzEO6Znp4e52JUWZ1JfrvNmXFsq00P9hKNq5O/VFLv377Gp37dtJY9JaW8Mzsd7hMKUyhw/v+2em/pl1zn1L9YQybVlTmVRHKDMcc7gt53P/THifOI6ttTbEeQ7zFdut7o2hL9W4jQ8P3XUcp2rcUrux3iHn5jGe1jWMbbF+1tcwbiH+qrGO/V1eXvu/Pz6lMkto5/r03LdTrLlDWKdDeOdqrFOshHrLOR36cRpPYU53xEE0P78U7dz+/ylxjKp2YrytxfqJ9cRxqsYt1XO5hI7s+H9BIb6qlR1jctix/nO9uS9pDcW9toiv+TXseXH9F2Wi+EzcV1vL876EvlaxEvei44d3m32J+37qRzyPWrFewh4yHI65mXh2hL01vl9rxbn1BWfU1pprreUzN/SlXMshVuL6qc6OKK6foehqGuuwDsuzfeObZ0+ZPedNqifGfrFO0/yEOB/DWdJaMf5x7F/yWkjnTYiVuF+31tpw7OM2rdNrsW+GPS9+U7QdfYvvPJzyGCyPfT3xLNxlY63vUn1DbHwTlTbWz9s49y8KAABAIlEAAAASiQIAAJBIFAAAgESiAAAAJBIFAAAgkSgAAACJRAEAAEgkCgAAQCJRAAAAEokCAACQSBQAAIBEogAAACQSBQAAIJEoAAAAiUQBAABIJAoAAEAiUQAAABKJAgAAkByW63zzgWHsc4l1WbZrXdbtZ74gRVnnvq/L+dr/fd3uW3wm1tFaa0Po/3h36v8+TanMcunrWV7Pm30ZxuHm32O7reUxWIcdAxnmbLlc+usiBtZL/47D8bjdThjb+fGxr6MYt/Q+G3PcWmstjNt4yPVuWc79/Axr9X7PfZkwp7GvrbW2htiJ7zwUfV3DfETDKcfB/PLa1/HU9zWu29ZaW8M874mDOLbTw31/fX+XOxzajnEex+hT47fX7uHdw3Y7Mb6K9RWfGUO94+NTKrM5P0U7KY4v4f2KMUj7Vwj9MnbCuA3j56+Fcj6CtM0U85XWVJyPdXveqzW13bd+/Kt9Zgz3ltBO/HtrebzHOM9LXpcxJnOl2/v1MIYxqWIl3hv76/WaYzau/+vHHOupTIjJWEelitPu78VZkvaI0E55Vk59PXtiZ6v/e75v4gyuVVynesP8zPn7IJ0Vaf3kvq1b3xCnw3ZfwjuPx1wmxvWesR7DPI+n8H0QzrDWWps/9t8Mcb6qtRDjLZ7T8Zz7dLOvZ37u+1LF8NY+U32HpDk9bsfs1nlTid+fUTWneQ+J5/S/zZd/UQAAABKJAgAAkEgUAACARKIAAAAkEgUAACCRKAAAAIlEAQAASCQKAABAIlEAAAASiQIAAJBIFAAAgESiAAAAJBIFAAAgkSgAAACJRAEAAEgkCgAAQCJRAAAAEokCAACQHLYeGI/9I+s8p2eWa39vXZftlq/bjyRDn9eMp75vsR+fbq59FcN2brRcLjevh2kqytx+obEoM4T+x/dre8ZxHLb78fzaVxvqXYtxW+e+v8O5r3c4VGOwPU6bwnzF92uttenu1F2vscwXWEPfW2ttDuMyhL4Mx2Mqk3u7w9a8jzlmp3cP3fXyeu6vi/eJY3n67Xd9N4r5iut967q11tYQg3HcqvmKz0RjmPN/LdRfhv5X+9Dy0q+F8f6uuz589aEo89LXm/a7/D5rmI8Ys9VYX5+eQ8N9vdWcjiEGq5jcsmed7pnDrXrLvsV6UxwX+9lye6+t2olvOO7p/8Y7j8UemJ45bh6xbQ7vnPbAQoyFGAdtybGf+hZjsliD4/19rGSzb3Fdxj0irrnqmTgG5Rm19nEQx3Eo9s3q3NqytTdVYtzG/sdvl9byfMT5qs6oKa7/IZxRe943nj/V+8a+pPkq4i1cj6f+/Y4xtlpr6/USrsMZXH539GMd19z0kONt68yt9p1U757vm+J87LpxLNZCPMfivBdxnb7TizMpWUJMhrF9+z3tXxQAAIBEogAAACQSBQAAIJEoAAAAiUQBAABIJAoAAEAiUQAAABKJAgAAkEgUAACARKIAAAAkEgUAACCRKAAAAIlEAQAASCQKAABAIlEAAAASiQIAAJBIFAAAgESiAAAAJBIFAAAgOaQ7y9pfXq7d9bosf5aGh8N0s95hLHKYdQmXfV/Xed5ud+rbnZ9f0zPXcG8+X7rrMfS9tdamUx7Kt5Yplxkv+d5bcYxaa20YwriMQ395zP2IYzlOp5vtljbGvurbeDz2fy/eZ732cxbnMM7Xp4r7doa2o29hnNIzcVwrcRyLsY71xPfZE6PRermke+NdP4fTh3fd9aEYtxgHw919qLQfo6rt5fGpu77+8jGVWUKZONZjtRbC+tmztsf7+5vPVOM2v5676yk8E8d1jxjD5TOhb3FfrZ5Jfy/iOu2bQ4jzos6tNRbXyq+1nYTYj+84rMW6rNb3Rl9SnIZ2yzLxHW83WxtDTOYpbOsS1ksxz5+r2jfbEvez7XN5K7bnp+d07/XHf+rb+YL9K87x6ZsPuW9hLbfwPmsRO0tYy+nbZc7rP52f8e/VWAdpn9lx3izh/FzOxfpf+r11ur/rrqv529wni71pCOfynj0v7enhOu6rreWxjvNVrdM4Lkvcq4oysZ3h6z6+pvf92ViJ43aI8dhau/z4x+46fifGmG2tbX4znH7zXS4TnknfLjvOm9jOnv17ef31ev2LAgAAkEgUAACARKIAAAAkEgUAACCRKAAAAIlEAQAASCQKAABAIlEAAAASiQIAAJBIFAAAgESiAAAAJBIFAAAgkSgAAACJRAEAAEgkCgAAQCJRAAAAEokCAACQSBQAAIBEogAAACSHtqw3H1iv82dXOgzb+ce6LP2N0I91ye0ua19mOV9v19laG0/HcKevty5z6K6P7++768P7h1SmhXdeLpf+79U4j0O+9/bPx9j31oZQZpim/roos2nNYxDnfZ3juPVj31pra5yfMAbToe9ra62Nx36s1/B+16fnorv9WMY6SjG+Ql+rsY6xMcQxqNZGqPf62Pd/fj2nIrHtIY5TEaPxmem+j9HpXY7R4f6uv57yfETLOfQ3vN/hw7tcKK7/UKYat9hOHPvlksvEOMh/L+I6zOFyCXE85r0r9neJc1is4yHUE+c97l2fytzeDyrxfa4fn7YLxXZC36p+xHEq5zD0JcZtiutWnBV7xiCu5R1jEGNhujuFdot5j3t46Gtst+xbyzGYisTxD+M0jnl/G499/+fn1/662mdC31IcF+L5uV7H8Peqb7fPoGrfmYt9vm/3879Dqv1hXfo5jX1N53ZhjLEz5zKx7fjOad9pra1hPubnl9vttrZ5rlXfYrGetPfuGOv4Pmk97bAU7VzDO8+v/dgeHvozrLX8PRbjOq3jVoxl/H6r1nYQ37naN9P3WYyDeL4W9pwLm+da9Y0XYyd+870p418UAACARKIAAAAkEgUAACCRKAAAAIlEAQAASCQKAABAIlEAAAASiQIAAJBIFAAAgESiAAAAJBIFAAAgkSgAAACJRAEAAEgkCgAAQCJRAAAAEokCAACQSBQAAIBEogAAACQSBQAAIDms69LdGKapf2JZu8v4fGutrfGZ69zXOQ6pzHDo21nO1+56PB1ymaHPa45fveuu59fzZpkW+nJ4uE9lxrvTzb6Op/7vreVxG465/9Fy7vu7Xq7h+pLKpLFe+jLtnMdgCfOxhHbGOOettSW0Hcd2ustjEPu2XJ6768vHp1Tm+O6h70sc+zh/rbU2hpgd+2fGYuxTbMzh8vkllYnjtq6347y1PAZ7THd9TMb5uBR9O/8Q7q072h36du6+ed//ecxjHdfu4UNfZnq4y2WmuLbDOBXtjPf9Ohw24u/X7vUN571qCus99nV+7GO2tdYuT+FeqDfWWYnjGPeU1up46v5evE/bKFPWE2JlGPL+/CVl4jNxnMblmMrsGZfUTnznECvjMbczve/3memhv67aXUJ8rfN887q11lpYDrGv88v2PhNXx9y2z7WtGP1UcV8mndPFGJy+/tBdH37bn7m79rvQl2vsa2vtGtZdjKXqjEr9De3s6Vs856q9qVx3b4sU3wMpVnb0ZQ1rIX4TXX7+mMpcX/r+H+772K/2pjnUE98vreOWxz+e/2kcW37nOF+H4uw4ftWfL6dvtvem6/Nrd/3yw0+hb+EbqRXfufHvxTfrKXxvTvf9GFTfRLHtNfT1Wpzt0Xjq57T8ng77QfxO3zpbKm/ny78oAAAAiUQBAABIJAoAAEAiUQAAABKJAgAAkEgUAACARKIAAAAkEgUAACCRKAAAAIlEAQAASCQKAABAIlEAAAASiQIAAJBIFAAAgESiAAAAJBIFAAAgkSgAAACJRAEAAEgOwzTdfGCZ581KhnHorse7U3e9rksqsy7rzTri3z/du3TX8+t5s29T6Msw9rnR9O4ulRkO/Zgsl+tmO8N9ruet9Zz7Ogx9X8Z3D+GJeN3aeu3nYwn1Xj8+pjJLGKc5vM9axECc9+vLJT0TxbFerv28X19eUpn4PoeHfhzH4zGVieO2XPq+xTpby7GyJ67PPz+FzoaYnXKePYbY2Yrz1lq7Pr/2N8J1tRam0+FmHUsxBrGey2M/H7HO1lp7+P6b7jqu7fHDh1RmmPp6hmOody3WduhvjMlqn4qxH9+v2h9irOz5PyVT6H9aP8VYp/Xz1M/P4b6I6/COaxinuL6qtmO7yznvXevSr8vpPte7JfatEt9nLOIriv29PD7nesMeHtfUYcyzevf1V31fvvl2sy/Dc9/2/NOf+geWvJajGIPzS47JNJah/+V+dg37WRi3+Zz3661xmx/z/vzj3/y+78uO/SzeO72/fTa21trpq/6sO4ZzOX9BtNbivh/7drj9bfOpjr7m8nsorJe4x49f5T1wfepjpzqXo8P7fgzi2Te/5r6l75vQt+n+PpWJ8xO/b67Fmov7Zrw+/5LLxBiM47b17Vmp9vStmDy+L76jwpzOr9vfNz/+Y78W5rDm4vqq+hLP2Hff9/tSazn212vYD4q+pfkJ317xfVsr5iOulzdx4V8UAACARKIAAAAkEgUAACCRKAAAAIlEAQAASCQKAABAIlEAAAASiQIAAJBIFAAAgESiAAAAJBIFAAAgkSgAAACJRAEAAEgkCgAAQCJRAAAAEokCAACQSBQAAIBEogAAACQSBQAAIDm0Zf2sAuPxkO4N4xiuh+56LdpYr3N/HcuEv39qvG9nPGyXmV/P3fXy1D9zN02pzPGrD307D/3fl3NfZ2utLY9P/Y112ezbeH/fXQ8PfUPD4ZjKxHqH5+f+Ooxja60tYQwOYT7i31trbX1+6a6nUz/vy7XvR2uttfGa72307fWnx5vXp6/e5WZCX65Pr931uuS+jYcpPNOPQdW3de7nLMb+4f6UysR6zr88p2e2xPU0ny/pmTgu999/211Pd7lv47sQXyH24/u21try1Pd/vYS+rHltxzhuYUyuP/yYylx++rmvY+jHYHq4y+0c+/WxPPZ9nUMMf+pLX+99GJPp229SkesvH/t2/tT3Ne4xreU4OLzr+z8W+06M2/hMVeYaYmM592uwip3p1I9brLdaP/NraKfYz6o1dKuOqswc+l/1ZTrF9dGXWa79fLXW2vHrX7rr00PeV6LzP/xDd/34+3/prg/3xf4cxL5V4t4a46ma97hHxHFaLrnduN7jnjjd5ff5zX/5q+76+OF9X+dhO46jOI6t5f5eX7b/H2ZsJ+7pcVxba20q9uwtl8d+H3n+oV//0+mHzTpS7A95rZzCvMc9vBrr8a7/hojfGdenfP4cwp4Xz7V4vrbW2vW5P2OvL31fj+/7frTW2umreA6E78RiDNZwnqQ9sOjbGM6BuH7i+7bW2hTuxbMvnkettfbuL77rru9++23oSI7ZWO/1Y/99c/klfDe2vE7jvFfn2vVle3+O0jdRKPN2b/YvCgAAQCJRAAAAEokCAACQSBQAAIBEogAAACQSBQAAIJEoAAAAiUQBAABIJAoAAEAiUQAAABKJAgAAkEgUAACARKIAAAAkEgUAACCRKAAAAIlEAQAASCQKAABAIlEAAAASiQIAAJAc2jj0d5Y1XC/d5TrPqZJ4bw11DLGN1tr8cv6Mbv6/ekLfDtNn1xHf55e/+4f0yPw3f9ddv/z03F0//stjLvN67a6nu0N3PU55DKpx2TKMfW5399Vdd30I7bbW2hjGaU+7cQ6j6bTdzvMf+3H65R9/TmUuT5eb7RzuczvTsR+DZe77WvX9cBfHYLz59+qZNcRO/HtlufZr4/ThPj3z8N377no89u98/qWPv9Zae/zDTzf7UsXB5blfc89/fOrb+ZjX5Hzp3/n82M/X09+/5DLPfZmH/xBi9EMe64dv+2dOH07ddTWnsW9xfh6+fdgsE+fn+HBMZWJcH+77Z07v+7621trpq3c365iveR+Npru+3utzHuunP/yxv/6hX3Nxf2itteO7/t4vv/+xu47j2Fpry7W/V63/GHPnx9e+nWL9x3G5/7rv2/vffZXKRPNrH5Mf/+mn9Mz/+Z9/213//Dcf+zqe8ztPD/2ainH8m//8XSpz/02OuS0xfuK8V2Md1/v1uR/rpx/696vE+Ypx3VprD7/7tm83niVTsW+Ge/H74PKY4zjGRtzjq77Fc2w69u3GOG9t+9tkPOR95vmHvm9/+F//1F2//pL3zfe/69f/++/7Pb7az55+7Pfj2Ld3v+nr/NTf22fQfM77zDV+qxy3z7HY3xjncR1X4vsc3+e1cgixvyfe5pc+nn7637/vrqvvtbjPxzVYzc+7333T1xH2+OFYxOjQv3Ncpz/9/T+nMteXfj/b8/0W7+W1nc+o5do/E/eUt2PvXxQAAIBEogAAACQSBQAAIJEoAAAAiUQBAABIJAoAAEAiUQAAABKJAgAAkEgUAACARKIAAAAkEgUAACCRKAAAAIlEAQAASCQKAABAIlEAAAASiQIAAJBIFAAAgESiAAAAJMN//W9/u769cTge2q3rspJh6K/H/npduiZaa61Nhz5HWYpnUplpvHn98nzerGMMZb7/q6/TM3/91++66w/vPz+ful7795mX/Mzp2F9/eNeP22HKY3K59s88PvfPPD7lMudL3/gy9888P8+pzOvrtbteQ7WPv7ymMkt4ya++feiuv/vuLpU5hDiYQ98Oh/59W2ttmvp7MXZiX6t7S7hxveRC12v/PrGvlTE8cj73dTw+XlKZl6f+3vXaz8fdXV6D33zXj+3Du6kvc8p9/fpDiP1vw/uNeQz+9NjXG5Z2+6tv85p7f+zv/fTSz/sffg6B31r78ae+7ZeXvm/39/l9Hu76zswhDv7wz3ms4171/W/7sT0W8fbxse/LP/9LH/sff85r4fmxH4NjmMNqv3sN+9flte//6f6Uynz9m36veveuH9uX534dt9ba+dzH1/sPfb3jkMcg1XEp9oyXvq3TqY+dv/jLvq+t5XX4+LGv4/kpz+FTGNsxBOV3v83t/Kf/eN9d/+e/DvMz5Q3693/sy/z+D/0zf/xjjv2PYV+MZ2E1tnHcLuf+ei4Oj3j2HY79WH/4enuvjfvb9ZLbiXvPMewrl3Muc7nm2HgrxmhreZziGRVj9lPb/b04TvHvrbV2DXFbfZtE77/p4+D77/u99/6+H/vWWnt66tv5OewRcf5ay+djDJWn4pyO+3E+P3M7d3e3z7FLEQdxXf70p+e+H8X7HI4h3kK91djvif3o4X0/bn/xl++762++yedn/Kx9fe378svHIt7id1Tof1xPreX+p3VbzE8ctzjHr6/V91p/L+4p55e8j76Ge7fWgn9RAAAAEokCAACQSBQAAIBEogAAACQSBQAAIJEoAAAAiUQBAABIJAoAAEAiUQAAABKJAgAAkEgUAACARKIAAAAkEgUAACCRKAAAAMn/BRvWiW5btNX4AAAAAElFTkSuQmCC;shape=image;verticalLabelPosition=bottom;labelBackgroundColor=default;verticalAlign=top;imageAspect=0;imageBorder=default;flipH=1;rotation=0;direction=east;comic=0;" parent="1" vertex="1">
                    <mxGeometry x="80" y="362.5" width="75" height="75" as="geometry"/>
                </mxCell>
                <mxCell id="50" value="Input layer&lt;br&gt;75 x75 x3" style="text;html=1;strokeColor=none;fillColor=none;align=center;verticalAlign=middle;whiteSpace=wrap;rounded=0;" parent="1" vertex="1">
                    <mxGeometry x="80" y="250" width="60" height="30" as="geometry"/>
                </mxCell>
                <mxCell id="37" value="" style="whiteSpace=wrap;html=1;aspect=fixed;fillColor=none;gradientColor=none;dashed=1;" parent="1" vertex="1">
                    <mxGeometry x="107.5" y="397.5" width="20" height="20" as="geometry"/>
                </mxCell>
                <mxCell id="72" value="" style="group;aspect=fixed;" parent="1" vertex="1" connectable="0">
                    <mxGeometry x="452.5" y="345" width="130" height="118.19999999999999" as="geometry"/>
                </mxCell>
                <mxCell id="73" value="" style="group;" parent="72" vertex="1" connectable="0">
                    <mxGeometry width="68" height="68" as="geometry"/>
                </mxCell>
                <mxCell id="79" value="" style="group;" parent="72" vertex="1" connectable="0">
                    <mxGeometry x="16" y="16" width="114" height="102.19999999999999" as="geometry"/>
                </mxCell>
                <mxCell id="1374" value="" style="group;aspect=fixed;" vertex="1" connectable="0" parent="79">
                    <mxGeometry x="16" y="5.9999999999999885" width="93" height="93" as="geometry"/>
                </mxCell>
                <mxCell id="1362" value="" style="whiteSpace=wrap;html=1;aspect=fixed;fillColor=#6FA0D9;" vertex="1" parent="1374">
                    <mxGeometry width="53.14285714285716" height="53.14285714285716" as="geometry"/>
                </mxCell>
                <mxCell id="1363" value="" style="whiteSpace=wrap;html=1;aspect=fixed;fillColor=#8FB3B3;" vertex="1" parent="1374">
                    <mxGeometry x="4.428571428571431" y="4.428571428571431" width="53.14285714285716" height="53.14285714285716" as="geometry"/>
                </mxCell>
                <mxCell id="1364" value="" style="whiteSpace=wrap;html=1;aspect=fixed;fillColor=#6FA0D9;" vertex="1" parent="1374">
                    <mxGeometry x="8.857142857142861" y="8.857142857142861" width="53.14285714285716" height="53.14285714285716" as="geometry"/>
                </mxCell>
                <mxCell id="1365" value="" style="whiteSpace=wrap;html=1;aspect=fixed;fillColor=#8FB3B3;" vertex="1" parent="1374">
                    <mxGeometry x="13.28571428571429" y="13.28571428571429" width="53.14285714285716" height="53.14285714285716" as="geometry"/>
                </mxCell>
                <mxCell id="1366" value="" style="whiteSpace=wrap;html=1;aspect=fixed;fillColor=#6FA0D9;" vertex="1" parent="1374">
                    <mxGeometry x="17.714285714285722" y="17.714285714285722" width="53.14285714285716" height="53.14285714285716" as="geometry"/>
                </mxCell>
                <mxCell id="1367" value="" style="whiteSpace=wrap;html=1;aspect=fixed;fillColor=#8FB3B3;" vertex="1" parent="1374">
                    <mxGeometry x="22.142857142857153" y="22.142857142857153" width="53.14285714285716" height="53.14285714285716" as="geometry"/>
                </mxCell>
                <mxCell id="1368" value="" style="whiteSpace=wrap;html=1;aspect=fixed;fillColor=#6FA0D9;" vertex="1" parent="1374">
                    <mxGeometry x="26.57142857142858" y="26.57142857142858" width="53.14285714285716" height="53.14285714285716" as="geometry"/>
                </mxCell>
                <mxCell id="1369" value="" style="whiteSpace=wrap;html=1;aspect=fixed;fillColor=#8FB3B3;" vertex="1" parent="1374">
                    <mxGeometry x="31" y="31" width="53.14285714285716" height="53.14285714285716" as="geometry"/>
                </mxCell>
                <mxCell id="1370" value="" style="whiteSpace=wrap;html=1;aspect=fixed;fillColor=#6FA0D9;" vertex="1" parent="1374">
                    <mxGeometry x="35.428571428571445" y="35.428571428571445" width="53.14285714285716" height="53.14285714285716" as="geometry"/>
                </mxCell>
                <mxCell id="1371" value="" style="whiteSpace=wrap;html=1;aspect=fixed;fillColor=#8FB3B3;" vertex="1" parent="1374">
                    <mxGeometry x="39.85714285714286" y="39.85714285714286" width="53.14285714285716" height="53.14285714285716" as="geometry"/>
                </mxCell>
                <mxCell id="82" value="" style="group;" parent="79" vertex="1" connectable="0">
                    <mxGeometry x="16" y="16" width="68" height="68" as="geometry"/>
                </mxCell>
                <mxCell id="85" value="" style="group;" parent="82" vertex="1" connectable="0">
                    <mxGeometry x="16" y="16" width="52" height="52" as="geometry"/>
                </mxCell>
                <mxCell id="136" value="" style="whiteSpace=wrap;html=1;aspect=fixed;fillColor=none;dashed=1;" parent="85" vertex="1">
                    <mxGeometry x="34" y="34" width="10" height="10" as="geometry"/>
                </mxCell>
                <mxCell id="102" style="edgeStyle=none;html=1;exitX=1;exitY=0;exitDx=0;exitDy=0;entryX=0.773;entryY=0.318;entryDx=0;entryDy=0;entryPerimeter=0;endArrow=none;dashed=1;" parent="1" source="101" edge="1">
                    <mxGeometry relative="1" as="geometry">
                        <mxPoint x="542.5120000000002" y="414.99199999999996" as="targetPoint"/>
                    </mxGeometry>
                </mxCell>
                <mxCell id="103" style="edgeStyle=none;html=1;exitX=1;exitY=0.75;exitDx=0;exitDy=0;endArrow=none:;dashed=1;" parent="1" source="101" edge="1">
                    <mxGeometry relative="1" as="geometry">
                        <mxPoint x="542.5" y="415" as="targetPoint"/>
                    </mxGeometry>
                </mxCell>
                <mxCell id="138" style="edgeStyle=none;html=1;exitX=1;exitY=0;exitDx=0;exitDy=0;entryX=0.495;entryY=0.242;entryDx=0;entryDy=0;entryPerimeter=0;endArrow=none;dashed=1;" parent="1" source="136" edge="1">
                    <mxGeometry relative="1" as="geometry">
                        <mxPoint x="652.5020000000002" y="414.9831999999998" as="targetPoint"/>
                    </mxGeometry>
                </mxCell>
                <mxCell id="139" style="edgeStyle=none;html=1;exitX=0.75;exitY=1;exitDx=0;exitDy=0;endArrow=none;dashed=1;" parent="1" source="136" edge="1">
                    <mxGeometry relative="1" as="geometry">
                        <mxPoint x="652.5" y="415" as="targetPoint"/>
                    </mxGeometry>
                </mxCell>
                <mxCell id="143" style="edgeStyle=none;html=1;exitX=0.75;exitY=0;exitDx=0;exitDy=0;entryX=0.747;entryY=0.242;entryDx=0;entryDy=0;entryPerimeter=0;endArrow=none;dashed=1;" parent="1" source="142" edge="1">
                    <mxGeometry relative="1" as="geometry">
                        <mxPoint x="762.4812000000002" y="414.9831999999998" as="targetPoint"/>
                    </mxGeometry>
                </mxCell>
                <mxCell id="145" style="edgeStyle=none;html=1;exitX=1;exitY=1;exitDx=0;exitDy=0;endArrow=none;dashed=1;" parent="1" source="142" edge="1">
                    <mxGeometry relative="1" as="geometry">
                        <mxPoint x="762.5" y="415" as="targetPoint"/>
                    </mxGeometry>
                </mxCell>
                <mxCell id="148" value="" style="group;" parent="1" vertex="1" connectable="0">
                    <mxGeometry x="792.5" y="345" width="61.19999999999999" height="61.19999999999999" as="geometry"/>
                </mxCell>
                <mxCell id="169" style="edgeStyle=none;html=1;exitX=1;exitY=1;exitDx=0;exitDy=0;endArrow=none;dashed=1;" parent="1" source="146" edge="1">
                    <mxGeometry relative="1" as="geometry">
                        <mxPoint x="872.6724137931036" y="405" as="targetPoint"/>
                    </mxGeometry>
                </mxCell>
                <mxCell id="167" style="edgeStyle=none;html=1;exitX=0.75;exitY=0;exitDx=0;exitDy=0;entryX=0.747;entryY=0.242;entryDx=0;entryDy=0;entryPerimeter=0;endArrow=none;dashed=1;" parent="1" source="146" edge="1">
                    <mxGeometry relative="1" as="geometry">
                        <mxPoint x="872.4812000000002" y="404.9831999999999" as="targetPoint"/>
                    </mxGeometry>
                </mxCell>
                <mxCell id="188" value="Convolution layer&lt;br&gt;64x5x5&lt;br&gt;+&lt;br&gt;ReLu" style="text;html=1;strokeColor=none;fillColor=none;align=center;verticalAlign=middle;whiteSpace=wrap;rounded=0;" parent="1" vertex="1">
                    <mxGeometry x="210" y="250" width="60" height="30" as="geometry"/>
                </mxCell>
                <mxCell id="189" value="Convolution&lt;br&gt;layer&lt;br&gt;64x5x5&lt;br&gt;+&lt;br&gt;ReLu" style="text;html=1;strokeColor=none;fillColor=none;align=center;verticalAlign=middle;whiteSpace=wrap;rounded=0;" parent="1" vertex="1">
                    <mxGeometry x="334" y="250" width="60" height="30" as="geometry"/>
                </mxCell>
                <mxCell id="190" value="Convolution&lt;br style=&quot;border-color: var(--border-color);&quot;&gt;layer&lt;br&gt;64x3x3&lt;br&gt;+&lt;br&gt;LeakyReLu" style="text;html=1;strokeColor=none;fillColor=none;align=center;verticalAlign=middle;whiteSpace=wrap;rounded=0;" parent="1" vertex="1">
                    <mxGeometry x="584" y="250" width="60" height="30" as="geometry"/>
                </mxCell>
                <mxCell id="191" value="Convolution&lt;br style=&quot;border-color: var(--border-color);&quot;&gt;layer&lt;br&gt;64x3x3&lt;br&gt;+&lt;br&gt;ReLu&lt;br&gt;+&lt;br&gt;Dropout" style="text;html=1;strokeColor=none;fillColor=none;align=center;verticalAlign=middle;whiteSpace=wrap;rounded=0;" parent="1" vertex="1">
                    <mxGeometry x="697.5" y="240" width="60" height="30" as="geometry"/>
                </mxCell>
                <mxCell id="192" value="Max-Pooling&lt;br&gt;&amp;nbsp;2x2&lt;br&gt;+&lt;br&gt;Dropout" style="text;html=1;strokeColor=none;fillColor=none;align=center;verticalAlign=middle;whiteSpace=wrap;rounded=0;" parent="1" vertex="1">
                    <mxGeometry x="453" y="250" width="70" height="30" as="geometry"/>
                </mxCell>
                <mxCell id="193" value="Max-Pooling 2x2&lt;br&gt;+&lt;br&gt;Dropout" style="text;html=1;strokeColor=none;fillColor=none;align=center;verticalAlign=middle;whiteSpace=wrap;rounded=0;" parent="1" vertex="1">
                    <mxGeometry x="792.4999999999999" y="250" width="70" height="30" as="geometry"/>
                </mxCell>
                <mxCell id="195" value="Fully Connected&lt;br&gt;4 Units" style="text;html=1;strokeColor=none;fillColor=none;align=center;verticalAlign=middle;whiteSpace=wrap;rounded=0;" parent="1" vertex="1">
                    <mxGeometry x="1026.32" y="250" width="70" height="30" as="geometry"/>
                </mxCell>
                <mxCell id="196" value="Output&amp;nbsp;&lt;br style=&quot;border-color: var(--border-color);&quot;&gt;layer&lt;br&gt;4" style="text;html=1;strokeColor=none;fillColor=none;align=center;verticalAlign=middle;whiteSpace=wrap;rounded=0;" parent="1" vertex="1">
                    <mxGeometry x="1099" y="250" width="70" height="30" as="geometry"/>
                </mxCell>
                <mxCell id="198" value="Fully Connected&lt;br&gt;512 Units&lt;br&gt;+&lt;br&gt;Dropout" style="text;html=1;strokeColor=none;fillColor=none;align=center;verticalAlign=middle;whiteSpace=wrap;rounded=0;" parent="1" vertex="1">
                    <mxGeometry x="953" y="246" width="70" height="30" as="geometry"/>
                </mxCell>
                <mxCell id="218" value="" style="shape=curlyBracket;whiteSpace=wrap;html=1;rounded=1;flipH=1;labelPosition=right;verticalLabelPosition=middle;align=left;verticalAlign=middle;direction=south;" parent="1" vertex="1">
                    <mxGeometry x="195" y="300" width="90" height="20" as="geometry"/>
                </mxCell>
                <mxCell id="219" value="" style="shape=curlyBracket;whiteSpace=wrap;html=1;rounded=1;flipH=1;labelPosition=right;verticalLabelPosition=middle;align=left;verticalAlign=middle;direction=south;" parent="1" vertex="1">
                    <mxGeometry x="72.5" y="300" width="90" height="20" as="geometry"/>
                </mxCell>
                <mxCell id="220" value="" style="shape=curlyBracket;whiteSpace=wrap;html=1;rounded=1;flipH=1;labelPosition=right;verticalLabelPosition=middle;align=left;verticalAlign=middle;direction=south;" parent="1" vertex="1">
                    <mxGeometry x="312.5" y="300" width="90" height="20" as="geometry"/>
                </mxCell>
                <mxCell id="221" value="" style="shape=curlyBracket;whiteSpace=wrap;html=1;rounded=1;flipH=1;labelPosition=right;verticalLabelPosition=middle;align=left;verticalAlign=middle;direction=south;" parent="1" vertex="1">
                    <mxGeometry x="444" y="300" width="90" height="20" as="geometry"/>
                </mxCell>
                <mxCell id="222" value="" style="shape=curlyBracket;whiteSpace=wrap;html=1;rounded=1;flipH=1;labelPosition=right;verticalLabelPosition=middle;align=left;verticalAlign=middle;direction=south;" parent="1" vertex="1">
                    <mxGeometry x="569" y="300" width="90" height="20" as="geometry"/>
                </mxCell>
                <mxCell id="223" value="" style="shape=curlyBracket;whiteSpace=wrap;html=1;rounded=1;flipH=1;labelPosition=right;verticalLabelPosition=middle;align=left;verticalAlign=middle;direction=south;" parent="1" vertex="1">
                    <mxGeometry x="682.5" y="300" width="80" height="20" as="geometry"/>
                </mxCell>
                <mxCell id="224" value="" style="shape=curlyBracket;whiteSpace=wrap;html=1;rounded=1;flipH=1;labelPosition=right;verticalLabelPosition=middle;align=left;verticalAlign=middle;direction=south;" parent="1" vertex="1">
                    <mxGeometry x="792.5" y="300" width="80" height="20" as="geometry"/>
                </mxCell>
                <mxCell id="226" value="" style="shape=curlyBracket;whiteSpace=wrap;html=1;rounded=1;flipH=1;labelPosition=right;verticalLabelPosition=middle;align=left;verticalAlign=middle;direction=south;" parent="1" vertex="1">
                    <mxGeometry x="957.5" y="300" width="50" height="20" as="geometry"/>
                </mxCell>
                <mxCell id="227" value="" style="shape=curlyBracket;whiteSpace=wrap;html=1;rounded=1;flipH=1;labelPosition=right;verticalLabelPosition=middle;align=left;verticalAlign=middle;direction=south;" parent="1" vertex="1">
                    <mxGeometry x="1036.32" y="300" width="50" height="20" as="geometry"/>
                </mxCell>
                <mxCell id="228" value="" style="shape=curlyBracket;whiteSpace=wrap;html=1;rounded=1;flipH=1;labelPosition=right;verticalLabelPosition=middle;align=left;verticalAlign=middle;direction=south;" parent="1" vertex="1">
                    <mxGeometry x="1109" y="300" width="50" height="20" as="geometry"/>
                </mxCell>
                <mxCell id="69" value="" style="whiteSpace=wrap;html=1;aspect=fixed;fillColor=none;dashed=1;" parent="1" vertex="1">
                    <mxGeometry x="272.5" y="435" width="15" height="15" as="geometry"/>
                </mxCell>
                <mxCell id="70" style="edgeStyle=none;html=1;exitX=0.75;exitY=0;exitDx=0;exitDy=0;entryX=0.545;entryY=0.364;entryDx=0;entryDy=0;entryPerimeter=0;endArrow=none;dashed=1;" parent="1" source="69" edge="1">
                    <mxGeometry relative="1" as="geometry">
                        <mxPoint x="412.4749999999999" y="425.02" as="targetPoint"/>
                    </mxGeometry>
                </mxCell>
                <mxCell id="272" value="" style="ellipse;whiteSpace=wrap;html=1;aspect=fixed;strokeColor=#82b366;fillColor=#d5e8d4;" parent="1" vertex="1">
                    <mxGeometry x="970" y="345.0025" width="29.65217391304349" height="29.65217391304349" as="geometry"/>
                </mxCell>
                <mxCell id="276" value="" style="ellipse;whiteSpace=wrap;html=1;aspect=fixed;strokeColor=#82b366;fillColor=#d5e8d4;" parent="1" vertex="1">
                    <mxGeometry x="1044.108795031056" y="361.2525" width="29.65217391304349" height="29.65217391304349" as="geometry"/>
                </mxCell>
                <mxCell id="285" value="" style="endArrow=none;html=1;rounded=0;exitX=1;exitY=1;exitDx=0;exitDy=0;entryX=0;entryY=0.5;entryDx=0;entryDy=0;" parent="1" source="272" target="276" edge="1">
                    <mxGeometry width="50" height="50" relative="1" as="geometry">
                        <mxPoint x="679.0186335403727" y="-18.74000000000001" as="sourcePoint"/>
                        <mxPoint x="738.6459627329193" y="-57.23999999999995" as="targetPoint"/>
                    </mxGeometry>
                </mxCell>
                <mxCell id="286" value="" style="endArrow=none;html=1;rounded=0;exitX=1;exitY=1;exitDx=0;exitDy=0;" parent="1" source="272" edge="1">
                    <mxGeometry width="50" height="50" relative="1" as="geometry">
                        <mxPoint x="643.2422360248447" y="-11.039999999999964" as="sourcePoint"/>
                        <mxPoint x="1060" y="410.0025" as="targetPoint"/>
                    </mxGeometry>
                </mxCell>
                <mxCell id="287" value="" style="endArrow=none;html=1;rounded=0;exitX=1;exitY=1;exitDx=0;exitDy=0;entryX=0.096;entryY=0.086;entryDx=0;entryDy=0;entryPerimeter=0;" parent="1" source="272" target="1205" edge="1">
                    <mxGeometry width="50" height="50" relative="1" as="geometry">
                        <mxPoint x="1012" y="369.3775" as="sourcePoint"/>
                        <mxPoint x="1048" y="450.6275" as="targetPoint"/>
                    </mxGeometry>
                </mxCell>
                <mxCell id="288" value="" style="endArrow=none;html=1;rounded=0;exitX=1;exitY=1;exitDx=0;exitDy=0;" parent="1" source="272" edge="1">
                    <mxGeometry width="50" height="50" relative="1" as="geometry">
                        <mxPoint x="702.8695652173915" y="35.159999999999854" as="sourcePoint"/>
                        <mxPoint x="1050" y="500" as="targetPoint"/>
                    </mxGeometry>
                </mxCell>
                <mxCell id="297" value="" style="endArrow=none;html=1;rounded=0;entryX=0;entryY=1;entryDx=0;entryDy=0;" parent="1" target="276" edge="1">
                    <mxGeometry width="50" height="50" relative="1" as="geometry">
                        <mxPoint x="1000" y="520" as="sourcePoint"/>
                        <mxPoint x="738.4764593803956" y="82.23944443027261" as="targetPoint"/>
                    </mxGeometry>
                </mxCell>
                <mxCell id="299" value="" style="endArrow=none;html=1;rounded=0;exitX=1;exitY=0.5;exitDx=0;exitDy=0;entryX=0;entryY=1;entryDx=0;entryDy=0;" parent="1" target="276" edge="1">
                    <mxGeometry width="50" height="50" relative="1" as="geometry">
                        <mxPoint x="1002.0372670807424" y="447.60858695652166" as="sourcePoint"/>
                        <mxPoint x="738.4764593803956" y="82.23944443027261" as="targetPoint"/>
                    </mxGeometry>
                </mxCell>
                <mxCell id="300" value="" style="endArrow=none;html=1;rounded=0;exitX=1;exitY=0.5;exitDx=0;exitDy=0;entryX=0;entryY=1;entryDx=0;entryDy=0;" parent="1" target="276" edge="1" source="1053">
                    <mxGeometry width="50" height="50" relative="1" as="geometry">
                        <mxPoint x="1010.7160872034556" y="401.57055556972716" as="sourcePoint"/>
                        <mxPoint x="750.4019252189049" y="89.93944443027254" as="targetPoint"/>
                    </mxGeometry>
                </mxCell>
                <mxCell id="301" value="" style="endArrow=none;html=1;rounded=0;exitX=1;exitY=0.5;exitDx=0;exitDy=0;entryX=0;entryY=0.5;entryDx=0;entryDy=0;" parent="1" source="276" target="280" edge="1">
                    <mxGeometry width="50" height="50" relative="1" as="geometry">
                        <mxPoint x="724.5049070792318" y="118.98055556972719" as="sourcePoint"/>
                        <mxPoint x="762.3273910574144" y="97.63944443027276" as="targetPoint"/>
                    </mxGeometry>
                </mxCell>
                <mxCell id="302" value="" style="endArrow=none;html=1;rounded=0;exitX=0;exitY=0.5;exitDx=0;exitDy=0;" parent="1" source="280" edge="1">
                    <mxGeometry width="50" height="50" relative="1" as="geometry">
                        <mxPoint x="779.192546583851" y="27.459999999999923" as="sourcePoint"/>
                        <mxPoint x="1080" y="420" as="targetPoint"/>
                    </mxGeometry>
                </mxCell>
                <mxCell id="309" value="" style="endArrow=none;html=1;rounded=0;entryX=1;entryY=1;entryDx=0;entryDy=0;exitX=0;exitY=0;exitDx=0;exitDy=0;" parent="1" target="276" edge="1">
                    <mxGeometry width="50" height="50" relative="1" as="geometry">
                        <mxPoint x="1118.8988196288428" y="423.9005555697272" as="sourcePoint"/>
                        <mxPoint x="784.1322362717783" y="89.93944443027254" as="targetPoint"/>
                    </mxGeometry>
                </mxCell>
                <mxCell id="310" value="" style="endArrow=none;html=1;rounded=0;entryX=1;entryY=1;entryDx=0;entryDy=0;exitX=0;exitY=0;exitDx=0;exitDy=0;" parent="1" target="276" edge="1">
                    <mxGeometry width="50" height="50" relative="1" as="geometry">
                        <mxPoint x="1118.8988196288428" y="467.7905555697272" as="sourcePoint"/>
                        <mxPoint x="772.2067704332691" y="38.3494444302728" as="targetPoint"/>
                    </mxGeometry>
                </mxCell>
                <mxCell id="1201" value="" style="ellipse;whiteSpace=wrap;html=1;aspect=fixed;strokeColor=#82b366;fillColor=#d5e8d4;" parent="1" vertex="1">
                    <mxGeometry x="972.3850931677018" y="433.5525" width="29.652173913043498" height="29.652173913043498" as="geometry"/>
                </mxCell>
                <mxCell id="1202" value="" style="ellipse;whiteSpace=wrap;html=1;aspect=fixed;strokeColor=#82b366;fillColor=#d5e8d4;" parent="1" vertex="1">
                    <mxGeometry x="972.3850931677018" y="476.6725" width="29.652173913043498" height="29.652173913043498" as="geometry"/>
                </mxCell>
                <mxCell id="1203" value="" style="ellipse;whiteSpace=wrap;html=1;aspect=fixed;strokeColor=#82b366;fillColor=#d5e8d4;" parent="1" vertex="1">
                    <mxGeometry x="972.3850931677018" y="520.5625" width="29.652173913043498" height="29.652173913043498" as="geometry"/>
                </mxCell>
                <mxCell id="1205" value="" style="ellipse;whiteSpace=wrap;html=1;aspect=fixed;strokeColor=#82b366;fillColor=#d5e8d4;" parent="1" vertex="1">
                    <mxGeometry x="1046.4938881987578" y="449.8025" width="29.652173913043498" height="29.652173913043498" as="geometry"/>
                </mxCell>
                <mxCell id="1206" value="" style="ellipse;whiteSpace=wrap;html=1;aspect=fixed;strokeColor=#82b366;fillColor=#d5e8d4;" parent="1" vertex="1">
                    <mxGeometry x="1046.4938881987578" y="493.6925" width="29.652173913043498" height="29.652173913043498" as="geometry"/>
                </mxCell>
                <mxCell id="1209" value="" style="endArrow=none;html=1;rounded=0;exitX=1;exitY=0.5;exitDx=0;exitDy=0;entryX=0;entryY=0.5;entryDx=0;entryDy=0;" parent="1" source="1201" target="1205" edge="1">
                    <mxGeometry width="50" height="50" relative="1" as="geometry">
                        <mxPoint x="20.732919254658327" y="-349.07000000000016" as="sourcePoint"/>
                        <mxPoint x="80.36024844720498" y="-387.57000000000005" as="targetPoint"/>
                    </mxGeometry>
                </mxCell>
                <mxCell id="1210" value="" style="endArrow=none;html=1;rounded=0;exitX=1;exitY=1;exitDx=0;exitDy=0;entryX=0;entryY=0;entryDx=0;entryDy=0;" parent="1" source="1201" target="1206" edge="1">
                    <mxGeometry width="50" height="50" relative="1" as="geometry">
                        <mxPoint x="-15.043478260869847" y="-341.37000000000023" as="sourcePoint"/>
                        <mxPoint x="44.58385093167692" y="-379.8700000000001" as="targetPoint"/>
                    </mxGeometry>
                </mxCell>
                <mxCell id="1215" value="" style="endArrow=none;html=1;rounded=0;entryX=0;entryY=0.5;entryDx=0;entryDy=0;exitX=1;exitY=0.5;exitDx=0;exitDy=0;" parent="1" source="1202" target="1206" edge="1">
                    <mxGeometry width="50" height="50" relative="1" as="geometry">
                        <mxPoint x="42.36826111649884" y="-248.86055556972724" as="sourcePoint"/>
                        <mxPoint x="80.19074509468135" y="-182.85944443027256" as="targetPoint"/>
                    </mxGeometry>
                </mxCell>
                <mxCell id="1222" value="" style="endArrow=none;html=1;rounded=0;exitX=1;exitY=0;exitDx=0;exitDy=0;entryX=0;entryY=1;entryDx=0;entryDy=0;" parent="1" source="1203" target="1206" edge="1">
                    <mxGeometry width="50" height="50" relative="1" as="geometry">
                        <mxPoint x="42.36826111649884" y="-182.85944443027256" as="sourcePoint"/>
                        <mxPoint x="80.19074509468135" y="-291.98055556972747" as="targetPoint"/>
                    </mxGeometry>
                </mxCell>
                <mxCell id="1223" value="" style="endArrow=none;html=1;rounded=0;exitX=1;exitY=0;exitDx=0;exitDy=0;entryX=0;entryY=1;entryDx=0;entryDy=0;" parent="1" source="1203" target="1205" edge="1">
                    <mxGeometry width="50" height="50" relative="1" as="geometry">
                        <mxPoint x="42.36826111649884" y="-226.7494444302729" as="sourcePoint"/>
                        <mxPoint x="80.19074509468135" y="-248.09055556972726" as="targetPoint"/>
                    </mxGeometry>
                </mxCell>
                <mxCell id="1224" value="" style="endArrow=none;html=1;rounded=0;exitX=1;exitY=0;exitDx=0;exitDy=0;entryX=0;entryY=1;entryDx=0;entryDy=0;" parent="1" source="1202" target="1205" edge="1">
                    <mxGeometry width="50" height="50" relative="1" as="geometry">
                        <mxPoint x="54.29372695500854" y="-219.04944443027284" as="sourcePoint"/>
                        <mxPoint x="92.11621093319036" y="-240.39055556972744" as="targetPoint"/>
                    </mxGeometry>
                </mxCell>
                <mxCell id="1226" value="" style="endArrow=none;dashed=1;html=1;entryX=0.5;entryY=1;entryDx=0;entryDy=0;exitX=0.5;exitY=0;exitDx=0;exitDy=0;" parent="1" source="1202" target="1201" edge="1">
                    <mxGeometry width="50" height="50" relative="1" as="geometry">
                        <mxPoint x="940.1863354037266" y="498.2325" as="sourcePoint"/>
                        <mxPoint x="999.8136645962733" y="467.4325" as="targetPoint"/>
                    </mxGeometry>
                </mxCell>
                <mxCell id="1053" value="" style="ellipse;whiteSpace=wrap;html=1;aspect=fixed;strokeColor=#82b366;fillColor=#d5e8d4;" parent="1" vertex="1">
                    <mxGeometry x="972.3850931677018" y="389.6625" width="29.652173913043498" height="29.652173913043498" as="geometry"/>
                </mxCell>
                <mxCell id="1055" value="" style="ellipse;whiteSpace=wrap;html=1;aspect=fixed;strokeColor=#82b366;fillColor=#d5e8d4;" parent="1" vertex="1">
                    <mxGeometry x="972.3850931677018" y="476.6725" width="29.652173913043498" height="29.652173913043498" as="geometry"/>
                </mxCell>
                <mxCell id="1056" value="" style="ellipse;whiteSpace=wrap;html=1;aspect=fixed;strokeColor=#82b366;fillColor=#d5e8d4;" parent="1" vertex="1">
                    <mxGeometry x="972.3850931677018" y="520.5625" width="29.652173913043498" height="29.652173913043498" as="geometry"/>
                </mxCell>
                <mxCell id="1057" value="" style="ellipse;whiteSpace=wrap;html=1;aspect=fixed;strokeColor=#82b366;fillColor=#d5e8d4;" parent="1" vertex="1">
                    <mxGeometry x="1046.4938881987578" y="405.9125" width="29.652173913043498" height="29.652173913043498" as="geometry"/>
                </mxCell>
                <mxCell id="1058" value="" style="ellipse;whiteSpace=wrap;html=1;aspect=fixed;strokeColor=#82b366;fillColor=#d5e8d4;" parent="1" vertex="1">
                    <mxGeometry x="1046.4938881987578" y="449.8025" width="29.652173913043498" height="29.652173913043498" as="geometry"/>
                </mxCell>
                <mxCell id="1066" value="" style="endArrow=none;html=1;rounded=0;exitX=1;exitY=0.5;exitDx=0;exitDy=0;entryX=0;entryY=0.5;entryDx=0;entryDy=0;" parent="1" source="1053" target="1057" edge="1">
                    <mxGeometry width="50" height="50" relative="1" as="geometry">
                        <mxPoint x="681.4037267080744" y="25.91999999999996" as="sourcePoint"/>
                        <mxPoint x="741.0310559006211" y="-12.580000000000041" as="targetPoint"/>
                    </mxGeometry>
                </mxCell>
                <mxCell id="1067" value="" style="endArrow=none;html=1;rounded=0;exitX=1;exitY=1;exitDx=0;exitDy=0;entryX=0;entryY=0;entryDx=0;entryDy=0;" parent="1" source="1053" target="1058" edge="1">
                    <mxGeometry width="50" height="50" relative="1" as="geometry">
                        <mxPoint x="645.6273291925464" y="33.620000000000005" as="sourcePoint"/>
                        <mxPoint x="705.2546583850932" y="-4.880000000000052" as="targetPoint"/>
                    </mxGeometry>
                </mxCell>
                <mxCell id="1068" value="" style="endArrow=none;html=1;rounded=0;entryX=0;entryY=0;entryDx=0;entryDy=0;exitX=1;exitY=0.5;exitDx=0;exitDy=0;" parent="1" source="1053" edge="1">
                    <mxGeometry width="50" height="50" relative="1" as="geometry">
                        <mxPoint x="1015.3167701863354" y="421.70000000000005" as="sourcePoint"/>
                        <mxPoint x="1050.8363485298553" y="497.26496033109754" as="targetPoint"/>
                    </mxGeometry>
                </mxCell>
                <mxCell id="1070" value="" style="endArrow=none;html=1;rounded=0;entryX=0;entryY=0.5;entryDx=0;entryDy=0;exitX=1;exitY=1;exitDx=0;exitDy=0;" parent="1" edge="1">
                    <mxGeometry width="50" height="50" relative="1" as="geometry">
                        <mxPoint x="997.6948067496476" y="458.0922135819459" as="sourcePoint"/>
                        <mxPoint x="1046.4938881987605" y="507.74858695652176" as="targetPoint"/>
                    </mxGeometry>
                </mxCell>
                <mxCell id="1077" value="" style="endArrow=none;html=1;rounded=0;exitX=1;exitY=0;exitDx=0;exitDy=0;entryX=0;entryY=1;entryDx=0;entryDy=0;" parent="1" source="1056" target="1058" edge="1">
                    <mxGeometry width="50" height="50" relative="1" as="geometry">
                        <mxPoint x="703.0390685699151" y="192.1305555697274" as="sourcePoint"/>
                        <mxPoint x="740.8615525480973" y="170.0194444302727" as="targetPoint"/>
                    </mxGeometry>
                </mxCell>
                <mxCell id="1078" value="" style="endArrow=none;html=1;rounded=0;exitX=1;exitY=0;exitDx=0;exitDy=0;entryX=0;entryY=1;entryDx=0;entryDy=0;" parent="1" source="1056" target="1057" edge="1">
                    <mxGeometry width="50" height="50" relative="1" as="geometry">
                        <mxPoint x="703.0390685699151" y="192.1305555697274" as="sourcePoint"/>
                        <mxPoint x="740.8615525480973" y="126.89944443027258" as="targetPoint"/>
                    </mxGeometry>
                </mxCell>
                <mxCell id="1079" value="" style="endArrow=none;html=1;rounded=0;exitX=1;exitY=0;exitDx=0;exitDy=0;entryX=0;entryY=1;entryDx=0;entryDy=0;" parent="1" source="1055" target="1058" edge="1">
                    <mxGeometry width="50" height="50" relative="1" as="geometry">
                        <mxPoint x="703.0390685699151" y="192.1305555697274" as="sourcePoint"/>
                        <mxPoint x="740.8615525480973" y="83.00944443027282" as="targetPoint"/>
                    </mxGeometry>
                </mxCell>
                <mxCell id="1080" value="" style="endArrow=none;html=1;rounded=0;exitX=1;exitY=0;exitDx=0;exitDy=0;entryX=0;entryY=1;entryDx=0;entryDy=0;" parent="1" source="1055" target="1057" edge="1">
                    <mxGeometry width="50" height="50" relative="1" as="geometry">
                        <mxPoint x="703.0390685699151" y="148.2405555697271" as="sourcePoint"/>
                        <mxPoint x="740.8615525480973" y="126.89944443027258" as="targetPoint"/>
                    </mxGeometry>
                </mxCell>
                <mxCell id="1081" value="" style="endArrow=none;html=1;rounded=0;exitX=1;exitY=0;exitDx=0;exitDy=0;entryX=0;entryY=1;entryDx=0;entryDy=0;" parent="1" target="1057" edge="1">
                    <mxGeometry width="50" height="50" relative="1" as="geometry">
                        <mxPoint x="997.6948067496476" y="437.12496033109767" as="sourcePoint"/>
                        <mxPoint x="752.7870183866066" y="134.59944443027257" as="targetPoint"/>
                    </mxGeometry>
                </mxCell>
                <mxCell id="1082" value="" style="endArrow=none;html=1;rounded=0;exitX=1;exitY=0.5;exitDx=0;exitDy=0;entryX=0;entryY=0.5;entryDx=0;entryDy=0;" parent="1" source="1057" target="1061" edge="1">
                    <mxGeometry width="50" height="50" relative="1" as="geometry">
                        <mxPoint x="726.8900002469336" y="163.64055556972724" as="sourcePoint"/>
                        <mxPoint x="764.7124842251162" y="142.29944443027284" as="targetPoint"/>
                    </mxGeometry>
                </mxCell>
                <mxCell id="1083" value="" style="endArrow=none;html=1;rounded=0;exitX=0;exitY=0.5;exitDx=0;exitDy=0;entryX=1;entryY=0.5;entryDx=0;entryDy=0;" parent="1" source="1061" target="1058" edge="1">
                    <mxGeometry width="50" height="50" relative="1" as="geometry">
                        <mxPoint x="781.5776397515529" y="72.11999999999989" as="sourcePoint"/>
                        <mxPoint x="804.2360248447205" y="93.68000000000012" as="targetPoint"/>
                    </mxGeometry>
                </mxCell>
                <mxCell id="1084" value="" style="endArrow=none;html=1;rounded=0;exitX=0;exitY=0.5;exitDx=0;exitDy=0;entryX=1;entryY=0.5;entryDx=0;entryDy=0;" parent="1" source="1063" edge="1">
                    <mxGeometry width="50" height="50" relative="1" as="geometry">
                        <mxPoint x="804.2360248447205" y="93.68000000000012" as="sourcePoint"/>
                        <mxPoint x="1076.146062111798" y="507.74858695652176" as="targetPoint"/>
                    </mxGeometry>
                </mxCell>
                <mxCell id="1087" value="" style="endArrow=none;html=1;rounded=0;exitX=0;exitY=1;exitDx=0;exitDy=0;entryX=1;entryY=0;entryDx=0;entryDy=0;" parent="1" source="1061" edge="1">
                    <mxGeometry width="50" height="50" relative="1" as="geometry">
                        <mxPoint x="811.2218009953023" y="148.45944443027278" as="sourcePoint"/>
                        <mxPoint x="1071.8036017807037" y="497.26496033109754" as="targetPoint"/>
                    </mxGeometry>
                </mxCell>
                <mxCell id="1088" value="" style="endArrow=none;html=1;rounded=0;exitX=0;exitY=0.5;exitDx=0;exitDy=0;entryX=1;entryY=1;entryDx=0;entryDy=0;" parent="1" source="1062" target="1058" edge="1">
                    <mxGeometry width="50" height="50" relative="1" as="geometry">
                        <mxPoint x="811.2218009953023" y="104.5694444302726" as="sourcePoint"/>
                        <mxPoint x="774.5918636009709" y="148.2405555697271" as="targetPoint"/>
                    </mxGeometry>
                </mxCell>
                <mxCell id="1089" value="" style="endArrow=none;html=1;rounded=0;entryX=1;entryY=0;entryDx=0;entryDy=0;exitX=0;exitY=0.5;exitDx=0;exitDy=0;" parent="1" source="1062" edge="1">
                    <mxGeometry width="50" height="50" relative="1" as="geometry">
                        <mxPoint x="896.0621118012422" y="156.8200000000001" as="sourcePoint"/>
                        <mxPoint x="1071.8036017807037" y="497.26496033109754" as="targetPoint"/>
                    </mxGeometry>
                </mxCell>
                <mxCell id="1090" value="" style="endArrow=none;html=1;rounded=0;entryX=1;entryY=1;entryDx=0;entryDy=0;exitX=0;exitY=0;exitDx=0;exitDy=0;" parent="1" source="1062" target="1057" edge="1">
                    <mxGeometry width="50" height="50" relative="1" as="geometry">
                        <mxPoint x="907.9875776397515" y="118.31999999999994" as="sourcePoint"/>
                        <mxPoint x="786.5173294394801" y="134.59944443027257" as="targetPoint"/>
                    </mxGeometry>
                </mxCell>
                <mxCell id="1091" value="" style="endArrow=none;html=1;rounded=0;entryX=1;entryY=1;entryDx=0;entryDy=0;exitX=0;exitY=0;exitDx=0;exitDy=0;" parent="1" source="1063" target="1057" edge="1">
                    <mxGeometry width="50" height="50" relative="1" as="geometry">
                        <mxPoint x="811.2218009953023" y="126.6805555697274" as="sourcePoint"/>
                        <mxPoint x="774.5918636009709" y="83.00944443027282" as="targetPoint"/>
                    </mxGeometry>
                </mxCell>
                <mxCell id="1092" value="" style="endArrow=none;html=1;rounded=0;entryX=1;entryY=1;entryDx=0;entryDy=0;exitX=0;exitY=0;exitDx=0;exitDy=0;" parent="1" source="1063" target="1058" edge="1">
                    <mxGeometry width="50" height="50" relative="1" as="geometry">
                        <mxPoint x="823.1472668338117" y="134.38055556972733" as="sourcePoint"/>
                        <mxPoint x="786.5173294394801" y="90.7094444302727" as="targetPoint"/>
                    </mxGeometry>
                </mxCell>
                <mxCell id="1238" value="" style="group" parent="1" vertex="1" connectable="0">
                    <mxGeometry x="1111.9130434782608" y="361.25" width="32.03726708074532" height="162.09217391304355" as="geometry"/>
                </mxCell>
                <mxCell id="280" value="" style="ellipse;whiteSpace=wrap;html=1;aspect=fixed;strokeColor=#b85450;fillColor=#f8cecc;" parent="1238" vertex="1">
                    <mxGeometry width="29.65217391304349" height="29.65217391304349" as="geometry"/>
                </mxCell>
                <mxCell id="1061" value="" style="ellipse;whiteSpace=wrap;html=1;aspect=fixed;strokeColor=#b85450;fillColor=#f8cecc;" parent="1238" vertex="1">
                    <mxGeometry x="2.3850931677018252" y="44.660000000000025" width="29.652173913043498" height="29.652173913043498" as="geometry"/>
                </mxCell>
                <mxCell id="1062" value="" style="ellipse;whiteSpace=wrap;html=1;aspect=fixed;strokeColor=#b85450;fillColor=#f8cecc;" parent="1238" vertex="1">
                    <mxGeometry x="2.3850931677018252" y="88.55000000000001" width="29.652173913043498" height="29.652173913043498" as="geometry"/>
                </mxCell>
                <mxCell id="1063" value="" style="ellipse;whiteSpace=wrap;html=1;aspect=fixed;strokeColor=#b85450;fillColor=#f8cecc;" parent="1238" vertex="1">
                    <mxGeometry x="2.3850931677018252" y="132.44000000000005" width="29.652173913043498" height="29.652173913043498" as="geometry"/>
                </mxCell>
                <mxCell id="1239" value="" style="edgeStyle=orthogonalEdgeStyle;endArrow=none;html=1;rounded=0;endSize=8;startSize=8;endFill=0;" parent="1" edge="1">
                    <mxGeometry width="50" height="50" relative="1" as="geometry">
                        <mxPoint x="940" y="340" as="sourcePoint"/>
                        <mxPoint x="920" y="550" as="targetPoint"/>
                    </mxGeometry>
                </mxCell>
                <mxCell id="1291" value="" style="line;strokeWidth=1;html=1;" parent="1" vertex="1">
                    <mxGeometry x="920" y="545" width="21" height="10" as="geometry"/>
                </mxCell>
                <mxCell id="1292" value="" style="shape=curlyBracket;whiteSpace=wrap;html=1;rounded=1;flipH=1;labelPosition=right;verticalLabelPosition=middle;align=left;verticalAlign=middle;direction=south;" parent="1" vertex="1">
                    <mxGeometry x="891" y="300" width="50" height="20" as="geometry"/>
                </mxCell>
                <mxCell id="1293" value="Flatten" style="text;html=1;strokeColor=none;fillColor=none;align=center;verticalAlign=middle;whiteSpace=wrap;rounded=0;" parent="1" vertex="1">
                    <mxGeometry x="887.5" y="256" width="70" height="30" as="geometry"/>
                </mxCell>
                <mxCell id="49" style="edgeStyle=none;html=1;exitX=0.75;exitY=1;exitDx=0;exitDy=0;endArrow=none;dashed=1;" parent="1" source="37" edge="1">
                    <mxGeometry relative="1" as="geometry">
                        <mxPoint x="280.5" y="425" as="targetPoint"/>
                    </mxGeometry>
                </mxCell>
                <mxCell id="48" style="edgeStyle=none;html=1;exitX=1;exitY=0;exitDx=0;exitDy=0;entryX=0.545;entryY=0.364;entryDx=0;entryDy=0;entryPerimeter=0;endArrow=none;dashed=1;" parent="1" source="37" edge="1">
                    <mxGeometry relative="1" as="geometry">
                        <mxPoint x="285.20000000000005" y="426.84000000000003" as="targetPoint"/>
                    </mxGeometry>
                </mxCell>
                <mxCell id="71" style="edgeStyle=none;html=1;exitX=0.75;exitY=1;exitDx=0;exitDy=0;endArrow=none;dashed=1;" parent="1" source="69" edge="1">
                    <mxGeometry relative="1" as="geometry">
                        <mxPoint x="412.5" y="425" as="targetPoint"/>
                    </mxGeometry>
                </mxCell>
                <mxCell id="101" value="" style="whiteSpace=wrap;html=1;aspect=fixed;fillColor=none;dashed=1;" parent="1" vertex="1">
                    <mxGeometry x="412.5" y="435" width="15" height="15" as="geometry"/>
                </mxCell>
                <mxCell id="133" value="" style="group;" parent="1" vertex="1" connectable="0">
                    <mxGeometry x="625.6999999999999" y="398.19999999999993" width="46.8" height="46.8" as="geometry"/>
                </mxCell>
                <mxCell id="142" value="" style="whiteSpace=wrap;html=1;aspect=fixed;fillColor=none;dashed=1;" parent="133" vertex="1">
                    <mxGeometry x="18.40000000000009" y="29.599999999999994" width="10" height="10" as="geometry"/>
                </mxCell>
                <mxCell id="117" value="" style="group;" parent="1" vertex="1" connectable="0">
                    <mxGeometry x="725.6999999999999" y="398.19999999999993" width="46.8" height="46.8" as="geometry"/>
                </mxCell>
                <mxCell id="146" value="" style="whiteSpace=wrap;html=1;aspect=fixed;fillColor=none;dashed=1;" parent="117" vertex="1">
                    <mxGeometry x="22.000000000000114" y="29.599999999999994" width="10" height="10" as="geometry"/>
                </mxCell>
            </root>
        </mxGraphModel>
    </diagram>
</mxfile>